# xmcd CD database file
# Generated: Wed May 2 20:51:13 2001 by KSCD
# 
# Track frame offsets:
#       150
#       17677
#       43880
#       64859
#       76694
#       90880
#       100322
#       110585
#       127862
#       147714
#       164734
#       195440
#
# Disc length: 2940 seconds
#
# Revision: 5
# Processed by: cddbd v1.4b41PL1 Copyright (c) Steve Scherf et al.
# Submitted via: Kscd 1.2.7
#
DISCID=9c0b7a0c
DTITLE=Larry Hannon - Remembering Heroes
DYEAR=1900
DGENRE=
TTITLE0=Where The Tallgrass Grows
TTITLE1=Heroes
TTITLE2=The Man From Coo-Wees-Coo-Wee
TTITLE3=A Simple Ode/Amazing Grace, (Traditional)
TTITLE4=The Way He Rode
TTITLE5=Those Black-Eyed Susans
TTITLE6=Wild Cow Run
TTITLE7=Saldani
TTITLE8=When Lightning Strikes
TTITLE9=The Buckle
TTITLE10=Remembering - The Walking Stick
TTITLE11=The Trail Cutter
EXTD=www.larryhannon.com
EXTT0=
EXTT1=
EXTT2=
EXTT3=
EXTT4=
EXTT5=
EXTT6=
EXTT7=
EXTT8=
EXTT9=
EXTT10=
EXTT11=
PLAYORDER=
